<svg xmlns="http://www.w3.org/2000/svg" viewBox="0 0 980 310" role="img" aria-labelledby="title desc"><title id="title">The Protocol Geek</title><desc id="desc">Protocol Geek key logo with company name and tagline.</desc><defs><linearGradient id="pgrad" x1="0" x2="1" y1="0" y2="1"><stop offset="0" stop-color="#0b4ea2"/><stop offset="1" stop-color="#33bfd2"/></linearGradient><filter id="shadow" x="-20%" y="-20%" width="140%" height="140%"><feDropShadow dx="0" dy="12" stdDeviation="10" flood-color="#0b4ea2" flood-opacity="0.18"/></filter></defs><rect width="980" height="310" fill="#fff"/><g filter="url(#shadow)"><path d="M94 72c0-18 14-32 32-32h88c72 0 130 55 130 126 0 70-56 126-126 126h-70v-64h70c35 0 62-27 62-62 0-36-28-62-64-62h-58v168c0 19-14 34-32 34S94 291 94 272V72z" fill="url(#pgrad)"/><path d="M158 104h58c36 0 64 26 64 62s-27 62-62 62h-70v64h-26V84c0-8 6-14 14-14h80c55 0 98 42 98 96 0 53-42 96-96 96h-44v-34h44c35 0 62-27 62-62 0-36-28-62-64-62h-58z" fill="none" stroke="#ffffff" stroke-width="10" opacity="0.95"/><circle cx="205" cy="146" r="22" fill="#fff"/><path d="M205 168l-18 56h36l-18-56z" fill="#fff"/><path d="M156 226v80h-30V226h30zm0 36h44v18h-44v-18zm0-34h54v18h-54v-18z" fill="#1aa7c4"/></g><g transform="translate(390 78)"><text x="0" y="42" font-family="Arial, Helvetica, sans-serif" font-size="38" font-weight="800" fill="#12345b" letter-spacing="2">THE</text><text x="0" y="98" font-family="Arial, Helvetica, sans-serif" font-size="58" font-weight="900" fill="#12345b" letter-spacing="1">PROTOCOL</text><text x="0" y="150" font-family="Arial, Helvetica, sans-serif" font-size="52" font-weight="900" fill="#33bfd2" letter-spacing="2">GEEK</text></g><text x="285" y="270" font-family="Arial, Helvetica, sans-serif" font-size="28" font-weight="500" fill="#27364a" letter-spacing="1">Clinical Research Operations Simplified</text></svg>